<?xml version="1.0" encoding="UTF-8"?>
<svg id="Ebene_2" data-name="Ebene 2" xmlns="http://www.w3.org/2000/svg" xmlns:xlink="http://www.w3.org/1999/xlink" viewBox="0 0 2879.85 3000.36">
  <defs>
    <style>
      .cls-1 {
        fill: none;
      }

      .cls-2 {
        fill: #362b67;
      }

      .cls-3 {
        fill: #24306e;
      }

      .cls-4 {
        fill: #1d3170;
      }

      .cls-5 {
        fill: #4e1e59;
      }

      .cls-6 {
        fill: #3f2763;
      }

      .cls-7 {
        fill: #362b68;
      }

      .cls-8 {
        fill: #302d6a;
      }

      .cls-9 {
        fill: #4e1f59;
      }

      .cls-10 {
        fill: #402763;
      }

      .cls-11 {
        fill: #501c57;
      }

      .cls-12 {
        fill: #0e3272;
      }

      .cls-13 {
        fill: #49225c;
      }

      .cls-14 {
        fill: #46245f;
      }

      .cls-15 {
        fill: #402762;
      }

      .cls-16 {
        fill: url(#Unbenannter_Verlauf_5);
      }

      .cls-17 {
        fill: #153271;
      }

      .cls-18 {
        fill: #48235e;
      }

      .cls-19 {
        fill: #442560;
      }

      .cls-20 {
        fill: #3d2864;
      }

      .cls-21 {
        fill: #422661;
      }

      .cls-22 {
        fill: #48225d;
      }

      .cls-23 {
        fill: #45245f;
      }

      .cls-24 {
        fill: #23306e;
      }

      .cls-25 {
        fill: #3c2864;
      }

      .cls-26 {
        fill: #3c2965;
      }

      .cls-27 {
        fill: #372a67;
      }

      .cls-28 {
        fill: #4c205b;
      }

      .cls-29 {
        fill: #1b3170;
      }

      .cls-30 {
        fill: #4f1e58;
      }

      .cls-31 {
        fill: #3a2965;
      }

      .cls-32 {
        fill: #2b2e6c;
      }

      .cls-33 {
        fill: #25306e;
      }

      .cls-34 {
        fill: #4b215b;
      }

      .cls-35 {
        fill: #392a66;
      }

      .cls-36 {
        fill: #49225d;
      }

      .cls-37 {
        fill: #4c205a;
      }

      .cls-38 {
        fill: #22306e;
      }

      .cls-39 {
        fill: #342b68;
      }

      .cls-40 {
        fill: #2d2e6b;
      }

      .cls-41 {
        fill: #342c68;
      }

      .cls-42 {
        fill: #163271;
      }

      .cls-43 {
        fill: #2e2d6b;
      }

      .cls-44 {
        fill: #4a215c;
      }

      .cls-45 {
        fill: #382a67;
      }

      .cls-46 {
        fill: #183270;
      }

      .cls-47 {
        fill: #412662;
      }

      .cls-48 {
        fill: #501d57;
      }

      .cls-49 {
        fill: #382a66;
      }

      .cls-50 {
        fill: #4d1f5a;
      }

      .cls-51 {
        fill: #3e2863;
      }

      .cls-52 {
        fill: #292f6c;
      }

      .cls-53 {
        fill: #272f6d;
      }

      .cls-54 {
        fill: #1a3170;
      }

      .cls-55 {
        fill: #511b56;
      }

      .cls-56 {
        fill: #1f316f;
      }

      .cls-57 {
        fill: #2f2d6a;
      }

      .cls-58 {
        fill: #103272;
      }

      .cls-59 {
        fill: #4b205b;
      }

      .cls-60 {
        fill: #352b68;
      }

      .cls-61 {
        fill: #4c1f5a;
      }

      .cls-62 {
        fill: #47235e;
      }

      .cls-63 {
        fill: #20306f;
      }

      .cls-64 {
        fill: #511c56;
      }

      .cls-65 {
        fill: #133271;
      }

      .cls-66 {
        fill: #432561;
      }

      .cls-67 {
        fill: url(#Unbenannter_Verlauf_5-2);
      }

      .cls-68 {
        fill: url(#Unbenannter_Verlauf_5-3);
      }

      .cls-69 {
        fill: url(#Unbenannter_Verlauf_5-4);
      }

      .cls-70 {
        fill: url(#Unbenannter_Verlauf_459);
      }

      .cls-71 {
        fill: #282f6d;
      }

      .cls-72 {
        fill: #332c69;
      }

      .cls-73 {
        fill: #4f1d58;
      }

      .cls-74 {
        fill: #4d1f59;
      }

      .cls-75 {
        fill: #322c69;
      }

      .cls-76 {
        fill: #3b2965;
      }

      .cls-77 {
        fill: #3e2763;
      }

      .cls-78 {
        fill: #1e316f;
      }

      .cls-79 {
        fill: #521b56;
      }

      .cls-80 {
        fill: #312c69;
      }

      .cls-81 {
        clip-path: url(#clippath);
      }

      .cls-82 {
        fill: #2c2e6b;
      }

      .cls-83 {
        fill: #312c6a;
      }

      .cls-84 {
        fill: #2a2e6c;
      }

      .cls-85 {
        fill: #442460;
      }

      .cls-86 {
        fill: #262f6d;
      }
    </style>
    <clipPath id="clippath">
      <path class="cls-1" d="M2286.81,978.21c0,103.61-83.99,187.59-187.59,187.59s-187.59-83.99-187.59-187.59,83.99-187.59,187.59-187.59,187.59,83.99,187.59,187.59ZM1351.06,684.27c-103.9,0-188.13,84.23-188.13,188.13s84.23,188.13,188.13,188.13,188.13-84.23,188.13-188.13-84.23-188.13-188.13-188.13ZM714.45,998.37c-103.9,0-188.13,84.23-188.13,188.13s84.23,188.13,188.13,188.13,188.13-84.23,188.13-188.13-84.23-188.13-188.13-188.13ZM2409.24,1606.71v-79.33c0-82.71-33.54-157.61-87.74-211.81-54.2-54.22-129.08-87.74-211.81-87.74-172.96,0-313.9,136.99-320.28,308.38-51.35-1.56-101.92-2.35-150.64-2.49v-224.32c0-100.45-81.42-181.85-181.85-181.85h-217.05c-97.5,0-176.53,79.04-176.53,176.53v251.58c-24.17,1.64-48.18,3.45-71.98,5.42-34.6-68.78-105.82-115.98-188.08-115.98h-116.54c-137.22,0-249.09,108.52-254.47,244.42-71.58,12.52-114.31,23.15-155.81,70.57-119.59,136.66,408.87,1038,1241.9,948.9,310.96-33.26,819.27-255.49,1040.59-734.66,47.7-103.31,47.74-143.2,60.87-202.97,16.41-74.8-71.33-127.92-210.59-164.65Z"/>
    </clipPath>
    <linearGradient id="Unbenannter_Verlauf_459" data-name="Unbenannter Verlauf 459" x1="187.19" y1="1500.18" x2="2692.66" y2="1500.18" gradientUnits="userSpaceOnUse">
      <stop offset="0" stop-color="#0e3272"/>
      <stop offset="1" stop-color="#521b56"/>
    </linearGradient>
    <linearGradient id="Unbenannter_Verlauf_5" data-name="Unbenannter Verlauf 5" x1="1431.78" y1="2478.49" x2="2085.36" y2="2478.49" gradientUnits="userSpaceOnUse">
      <stop offset="0" stop-color="#5b2669"/>
      <stop offset=".68" stop-color="#313985"/>
      <stop offset="1" stop-color="#1c4394"/>
    </linearGradient>
    <linearGradient id="Unbenannter_Verlauf_5-2" data-name="Unbenannter Verlauf 5" x1="1501.93" y1="1886.95" x2="1977.94" y2="1886.95" xlink:href="#Unbenannter_Verlauf_5"/>
    <linearGradient id="Unbenannter_Verlauf_5-3" data-name="Unbenannter Verlauf 5" x1="902.58" y1="2532.45" x2="1365.06" y2="2532.45" xlink:href="#Unbenannter_Verlauf_5"/>
    <linearGradient id="Unbenannter_Verlauf_5-4" data-name="Unbenannter Verlauf 5" x1="952.22" y1="2089.79" x2="1289.05" y2="2089.79" xlink:href="#Unbenannter_Verlauf_5"/>
  </defs>
  <g class="cls-81">
    <rect class="cls-12" x="235.8" y="1127.56" width="80.35" height="1654.04"/>
    <rect class="cls-12" x="316.15" y="1127.56" width="23.53" height="1654.04"/>
    <rect class="cls-58" x="339.68" y="1127.56" width="23.53" height="1654.04"/>
    <rect class="cls-65" x="363.21" y="1127.56" width="23.53" height="1654.04"/>
    <rect class="cls-17" x="386.73" y="1127.56" width="23.53" height="1654.04"/>
    <rect class="cls-42" x="410.26" y="1127.56" width="23.53" height="1654.04"/>
    <rect class="cls-46" x="433.79" y="1127.56" width="23.53" height="1654.04"/>
    <rect class="cls-54" x="457.31" y="1127.56" width="23.53" height="1654.04"/>
    <rect class="cls-29" x="480.84" y="1127.56" width="23.53" height="1654.04"/>
    <rect class="cls-4" x="504.37" y="1127.56" width="23.53" height="1654.04"/>
    <rect class="cls-78" x="527.89" y="1127.56" width="23.53" height="1654.04"/>
    <rect class="cls-56" x="551.42" y="1127.56" width="23.53" height="1654.04"/>
    <rect class="cls-63" x="574.95" y="1127.56" width="23.53" height="1654.04"/>
    <rect class="cls-38" x="598.48" y="1127.56" width="23.53" height="1654.04"/>
    <rect class="cls-24" x="622" y="1127.56" width="23.53" height="1654.04"/>
    <rect class="cls-3" x="645.53" y="1127.56" width="23.53" height="1654.04"/>
    <rect class="cls-33" x="669.06" y="1127.56" width="23.53" height="1654.04"/>
    <rect class="cls-86" x="692.58" y="1127.56" width="23.53" height="1654.04"/>
    <rect class="cls-53" x="716.11" y="1127.56" width="23.53" height="1654.04"/>
    <rect class="cls-71" x="739.64" y="1127.56" width="23.53" height="1654.04"/>
    <rect class="cls-52" x="763.16" y="1127.56" width="23.53" height="1654.04"/>
    <rect class="cls-84" x="786.69" y="1127.56" width="23.53" height="1654.04"/>
    <rect class="cls-84" x="810.22" y="1127.56" width="23.53" height="1654.04"/>
    <rect class="cls-32" x="833.75" y="1127.56" width="23.53" height="1654.04"/>
    <rect class="cls-82" x="857.27" y="1127.56" width="23.53" height="1654.04"/>
    <rect class="cls-40" x="880.8" y="1127.56" width="23.53" height="1654.04"/>
    <rect class="cls-43" x="904.33" y="1127.56" width="23.53" height="1654.04"/>
    <rect class="cls-57" x="927.85" y="1127.56" width="23.53" height="1654.04"/>
    <rect class="cls-57" x="951.38" y="1127.56" width="23.53" height="1654.04"/>
    <rect class="cls-8" x="974.91" y="1127.56" width="23.53" height="1654.04"/>
    <rect class="cls-83" x="998.43" y="1127.56" width="23.53" height="1654.04"/>
    <rect class="cls-80" x="1021.96" y="1127.56" width="23.53" height="1654.04"/>
    <rect class="cls-75" x="1045.49" y="1127.56" width="23.53" height="1654.04"/>
    <rect class="cls-72" x="1069.02" y="1127.56" width="23.53" height="1654.04"/>
    <rect class="cls-41" x="1092.54" y="1127.56" width="23.53" height="1654.04"/>
    <rect class="cls-39" x="1116.07" y="1127.56" width="23.53" height="1654.04"/>
    <rect class="cls-60" x="1139.6" y="1127.56" width="23.53" height="1654.04"/>
    <rect class="cls-7" x="1163.12" y="1127.56" width="23.53" height="1654.04"/>
    <rect class="cls-2" x="1186.65" y="1127.56" width="23.53" height="1654.04"/>
    <rect class="cls-27" x="1210.18" y="1127.56" width="23.53" height="1654.04"/>
    <rect class="cls-45" x="1233.7" y="1127.56" width="23.53" height="1654.04"/>
    <rect class="cls-49" x="1257.23" y="1127.56" width="23.53" height="1654.04"/>
    <rect class="cls-35" x="1280.76" y="1127.56" width="23.53" height="1654.04"/>
    <rect class="cls-35" x="1304.29" y="1127.56" width="23.53" height="1654.04"/>
    <rect class="cls-31" x="1327.81" y="1127.56" width="23.53" height="1654.04"/>
    <rect class="cls-76" x="1351.34" y="1127.56" width="23.53" height="1654.04"/>
    <rect class="cls-76" x="1374.87" y="1127.56" width="23.53" height="1654.04"/>
    <rect class="cls-26" x="1398.39" y="1127.56" width="23.53" height="1654.04"/>
    <rect class="cls-25" x="1421.92" y="1127.56" width="23.53" height="1654.04"/>
    <rect class="cls-20" x="1445.45" y="1127.56" width="23.53" height="1654.04"/>
    <rect class="cls-20" x="1468.97" y="1127.56" width="23.53" height="1654.04"/>
    <rect class="cls-51" x="1492.5" y="1127.56" width="23.53" height="1654.04"/>
    <rect class="cls-77" x="1516.03" y="1127.56" width="23.53" height="1654.04"/>
    <rect class="cls-6" x="1539.56" y="1127.56" width="23.53" height="1654.04"/>
    <rect class="cls-10" x="1563.08" y="1127.56" width="23.53" height="1654.04"/>
    <rect class="cls-15" x="1586.61" y="1127.56" width="23.53" height="1654.04"/>
    <rect class="cls-47" x="1610.14" y="1127.56" width="23.53" height="1654.04"/>
    <rect class="cls-47" x="1633.66" y="1127.56" width="23.53" height="1654.04"/>
    <rect class="cls-21" x="1657.19" y="1127.56" width="23.53" height="1654.04"/>
    <rect class="cls-21" x="1680.72" y="1127.56" width="23.53" height="1654.04"/>
    <rect class="cls-66" x="1704.24" y="1127.56" width="23.53" height="1654.04"/>
    <rect class="cls-66" x="1727.77" y="1127.56" width="23.53" height="1654.04"/>
    <rect class="cls-19" x="1751.3" y="1127.56" width="23.53" height="1654.04"/>
    <rect class="cls-19" x="1774.83" y="1127.56" width="23.53" height="1654.04"/>
    <rect class="cls-85" x="1798.35" y="1127.56" width="23.53" height="1654.04"/>
    <rect class="cls-23" x="1821.88" y="1127.56" width="23.53" height="1654.04"/>
    <rect class="cls-23" x="1845.41" y="1127.56" width="23.53" height="1654.04"/>
    <rect class="cls-14" x="1868.93" y="1127.56" width="23.53" height="1654.04"/>
    <rect class="cls-14" x="1892.46" y="1127.56" width="23.53" height="1654.04"/>
    <rect class="cls-62" x="1915.99" y="1127.56" width="23.53" height="1654.04"/>
    <rect class="cls-62" x="1939.51" y="1127.56" width="23.53" height="1654.04"/>
    <rect class="cls-18" x="1963.04" y="1127.56" width="23.53" height="1654.04"/>
    <rect class="cls-22" x="1986.57" y="1127.56" width="23.53" height="1654.04"/>
    <rect class="cls-22" x="2010.1" y="1127.56" width="23.53" height="1654.04"/>
    <rect class="cls-36" x="2033.62" y="1127.56" width="23.53" height="1654.04"/>
    <rect class="cls-13" x="2057.15" y="1127.56" width="23.53" height="1654.04"/>
    <rect class="cls-44" x="2080.68" y="1127.56" width="23.53" height="1654.04"/>
    <rect class="cls-44" x="2104.2" y="1127.56" width="23.53" height="1654.04"/>
    <rect class="cls-44" x="2127.73" y="1127.56" width="23.53" height="1654.04"/>
    <rect class="cls-34" x="2151.26" y="1127.56" width="23.53" height="1654.04"/>
    <rect class="cls-59" x="2174.78" y="1127.56" width="23.53" height="1654.04"/>
    <rect class="cls-28" x="2198.31" y="1127.56" width="23.53" height="1654.04"/>
    <rect class="cls-37" x="2221.84" y="1127.56" width="23.53" height="1654.04"/>
    <rect class="cls-61" x="2245.37" y="1127.56" width="23.53" height="1654.04"/>
    <rect class="cls-50" x="2268.89" y="1127.56" width="23.53" height="1654.04"/>
    <rect class="cls-74" x="2292.42" y="1127.56" width="23.53" height="1654.04"/>
    <rect class="cls-9" x="2315.95" y="1127.56" width="23.53" height="1654.04"/>
    <rect class="cls-5" x="2339.47" y="1127.56" width="23.53" height="1654.04"/>
    <rect class="cls-5" x="2363" y="1127.56" width="23.53" height="1654.04"/>
    <rect class="cls-30" x="2386.53" y="1127.56" width="23.53" height="1654.04"/>
    <rect class="cls-73" x="2410.05" y="1127.56" width="23.53" height="1654.04"/>
    <rect class="cls-73" x="2433.58" y="1127.56" width="23.53" height="1654.04"/>
    <rect class="cls-48" x="2457.11" y="1127.56" width="23.53" height="1654.04"/>
    <rect class="cls-11" x="2480.64" y="1127.56" width="23.53" height="1654.04"/>
    <rect class="cls-11" x="2504.16" y="1127.56" width="23.53" height="1654.04"/>
    <rect class="cls-64" x="2527.69" y="1127.56" width="23.53" height="1654.04"/>
    <rect class="cls-55" x="2551.22" y="1127.56" width="23.53" height="1654.04"/>
    <rect class="cls-55" x="2574.74" y="1127.56" width="23.53" height="1654.04"/>
    <rect class="cls-79" x="2598.27" y="1127.56" width="23.53" height="1654.04"/>
    <rect class="cls-79" x="2621.8" y="1127.56" width="14.44" height="1654.04"/>
    <rect class="cls-4" x="526.33" y="998.37" width="1.57" height="376.25"/>
    <rect class="cls-78" x="527.89" y="998.37" width="23.53" height="376.25"/>
    <rect class="cls-56" x="551.42" y="998.37" width="23.53" height="376.25"/>
    <rect class="cls-63" x="574.95" y="998.37" width="23.53" height="376.25"/>
    <rect class="cls-38" x="598.48" y="998.37" width="23.53" height="376.25"/>
    <rect class="cls-24" x="622" y="998.37" width="23.53" height="376.25"/>
    <rect class="cls-3" x="645.53" y="998.37" width="23.53" height="376.25"/>
    <rect class="cls-33" x="669.06" y="998.37" width="23.53" height="376.25"/>
    <rect class="cls-86" x="692.58" y="998.37" width="23.53" height="376.25"/>
    <rect class="cls-53" x="716.11" y="998.37" width="23.53" height="376.25"/>
    <rect class="cls-71" x="739.64" y="998.37" width="23.53" height="376.25"/>
    <rect class="cls-52" x="763.16" y="998.37" width="23.53" height="376.25"/>
    <rect class="cls-84" x="786.69" y="998.37" width="23.53" height="376.25"/>
    <rect class="cls-84" x="810.22" y="998.37" width="23.53" height="376.25"/>
    <rect class="cls-32" x="833.75" y="998.37" width="23.53" height="376.25"/>
    <rect class="cls-82" x="857.27" y="998.37" width="23.53" height="376.25"/>
    <rect class="cls-40" x="880.8" y="998.37" width="21.78" height="376.25"/>
    <rect class="cls-60" x="1162.93" y="684.27" width=".19" height="376.25"/>
    <rect class="cls-7" x="1163.12" y="684.27" width="23.53" height="376.25"/>
    <rect class="cls-2" x="1186.65" y="684.27" width="23.53" height="376.25"/>
    <rect class="cls-27" x="1210.18" y="684.27" width="23.53" height="376.25"/>
    <rect class="cls-45" x="1233.7" y="684.27" width="23.53" height="376.25"/>
    <rect class="cls-49" x="1257.23" y="684.27" width="23.53" height="376.25"/>
    <rect class="cls-35" x="1280.76" y="684.27" width="23.53" height="376.25"/>
    <rect class="cls-35" x="1304.29" y="684.27" width="23.53" height="376.25"/>
    <rect class="cls-31" x="1327.81" y="684.27" width="23.53" height="376.25"/>
    <rect class="cls-76" x="1351.34" y="684.27" width="23.53" height="376.25"/>
    <rect class="cls-76" x="1374.87" y="684.27" width="23.53" height="376.25"/>
    <rect class="cls-26" x="1398.39" y="684.27" width="23.53" height="376.25"/>
    <rect class="cls-25" x="1421.92" y="684.27" width="23.53" height="376.25"/>
    <rect class="cls-20" x="1445.45" y="684.27" width="23.53" height="376.25"/>
    <rect class="cls-20" x="1468.97" y="684.27" width="23.53" height="376.25"/>
    <rect class="cls-51" x="1492.5" y="684.27" width="23.53" height="376.25"/>
    <rect class="cls-77" x="1516.03" y="684.27" width="23.16" height="376.25"/>
    <rect class="cls-14" x="1911.62" y="790.62" width="4.37" height="375.19"/>
    <rect class="cls-62" x="1915.99" y="790.62" width="23.53" height="375.19"/>
    <rect class="cls-62" x="1939.51" y="790.62" width="23.53" height="375.19"/>
    <rect class="cls-18" x="1963.04" y="790.62" width="23.53" height="375.19"/>
    <rect class="cls-22" x="1986.57" y="790.62" width="23.53" height="375.19"/>
    <rect class="cls-22" x="2010.1" y="790.62" width="23.53" height="375.19"/>
    <rect class="cls-36" x="2033.62" y="790.62" width="23.53" height="375.19"/>
    <rect class="cls-13" x="2057.15" y="790.62" width="23.53" height="375.19"/>
    <rect class="cls-44" x="2080.68" y="790.62" width="23.53" height="375.19"/>
    <rect class="cls-44" x="2104.2" y="790.62" width="23.53" height="375.19"/>
    <rect class="cls-44" x="2127.73" y="790.62" width="23.53" height="375.19"/>
    <rect class="cls-34" x="2151.26" y="790.62" width="23.53" height="375.19"/>
    <rect class="cls-59" x="2174.78" y="790.62" width="23.53" height="375.19"/>
    <rect class="cls-28" x="2198.31" y="790.62" width="23.53" height="375.19"/>
    <rect class="cls-37" x="2221.84" y="790.62" width="23.53" height="375.19"/>
    <rect class="cls-61" x="2245.37" y="790.62" width="23.53" height="375.19"/>
    <rect class="cls-50" x="2268.89" y="790.62" width="17.92" height="375.19"/>
  </g>
  <path class="cls-70" d="M2594.19,1012.55c-63.09-149.18-153.42-283.15-268.44-398.19-115.04-115.02-249.01-205.36-398.19-268.44-154.48-65.35-318.53-98.47-487.63-98.47s-333.17,33.12-487.63,98.47c-149.18,63.09-283.17,153.42-398.19,268.44-115.04,115.04-205.36,249.01-268.46,398.19-65.33,154.46-98.45,318.53-98.45,487.63s33.12,333.17,98.45,487.63c63.11,149.18,153.42,283.15,268.46,398.19,102.11,102.11,219.12,184.74,348.48,246.12,16.38,7.81,32.96,15.24,49.71,22.32,131.55,55.65,270.08,87.94,412.77,96.27,22.14,1.31,44.38,2.04,66.72,2.18,2.7.02,5.42.02,8.14.02,169.1,0,333.15-33.12,487.63-98.47,54.7-23.13,107.36-49.94,157.8-80.3,87.09-52.35,167.54-115.29,240.39-188.14,115.02-115.04,205.36-249.01,268.44-398.19,65.33-154.46,98.47-318.53,98.47-487.63s-33.14-333.17-98.47-487.63ZM2523.42,1957.88c-59.23,140.03-144.01,265.79-252.02,373.79-57.21,57.21-119.38,107.9-186.04,151.74-59.18,38.92-121.9,72.43-187.75,100.28-144.93,61.3-298.93,92.39-457.69,92.39-2.72,0-5.44,0-8.14-.02-22.34-.17-44.58-.91-66.72-2.31-132.34-8.24-260.8-38.44-382.84-90.06-27.1-11.46-53.64-23.86-79.64-37.23-108.38-55.65-207.04-127.67-294.15-214.78-108-108-192.79-233.76-252.02-373.79-61.3-144.95-92.39-298.95-92.39-457.71s31.09-312.76,92.39-457.71c59.23-140.01,144.01-265.76,252.02-373.77,108-108,233.76-192.81,373.79-252.04,144.95-61.3,298.93-92.39,457.71-92.39s312.76,31.09,457.69,92.39c140.03,59.23,265.79,144.03,373.79,252.04,108,108,192.79,233.76,252.02,373.77,61.32,144.95,92.41,298.95,92.41,457.71s-31.09,312.76-92.41,457.71Z"/>
  <g>
    <path class="cls-16" d="M2085.36,2467.22v106.92c-50.44,30.36-103.1,57.17-157.8,80.3-154.48,65.35-318.53,98.47-487.63,98.47-2.72,0-5.44,0-8.14-.02v-285.68c0-145.32,117.81-263.15,263.15-263.15h127.28c145.32,0,263.15,117.83,263.15,263.15Z"/>
    <circle class="cls-67" cx="1739.93" cy="1886.95" r="238.01"/>
  </g>
  <g>
    <path class="cls-68" d="M1365.06,2545.42v205.29c-142.68-8.33-281.21-40.62-412.77-96.27-16.76-7.08-33.33-14.52-49.71-22.32v-86.7c0-127.71,103.52-231.23,231.23-231.23,63.86,0,121.67,25.87,163.51,67.72,41.86,41.84,67.74,99.66,67.74,163.51Z"/>
    <circle class="cls-69" cx="1120.64" cy="2089.79" r="168.42"/>
  </g>
</svg>